<?xml version="1.0" encoding="UTF-8"?>
<!DOCTYPE svg PUBLIC "-//W3C//DTD SVG 1.1//EN" "http://www.w3.org/Graphics/SVG/1.1/DTD/svg11.dtd">
<svg xmlns="http://www.w3.org/2000/svg" version="1.1" width="450px" height="250px" style="shape-rendering:geometricPrecision; text-rendering:geometricPrecision; image-rendering:optimizeQuality; fill-rule:evenodd; clip-rule:evenodd" xmlns:xlink="http://www.w3.org/1999/xlink">
<g><path style="opacity:0.873" fill="#fefffe" d="M 412.5,136.5 C 411.039,138.676 410.706,141.009 411.5,143.5C 410.013,150.047 406.013,152.214 399.5,150C 398.692,149.692 398.025,149.192 397.5,148.5C 396.74,142.767 395.574,137.101 394,131.5C 392.157,137.694 390.323,143.861 388.5,150C 384.569,150.929 381.069,150.096 378,147.5C 372.342,151.032 366.176,152.532 359.5,152C 358.034,150.448 357.034,148.614 356.5,146.5C 359.07,145.298 361.57,143.965 364,142.5C 365.477,138.57 366.644,134.57 367.5,130.5C 369.434,126.892 371.101,123.058 372.5,119C 369.972,116.377 368.972,113.21 369.5,109.5C 373.406,109.286 377.239,108.619 381,107.5C 383.135,108.127 385.302,108.627 387.5,109C 388.293,110.085 388.96,111.252 389.5,112.5C 387.956,113.747 386.456,115.08 385,116.5C 382.757,124.897 379.923,133.064 376.5,141C 378,141.833 379.167,143 380,144.5C 384.221,135.616 386.888,126.283 388,116.5C 391.363,113.526 395.197,112.526 399.5,113.5C 401.946,118.871 403.113,124.537 403,130.5C 406.862,121.915 410.528,113.248 414,104.5C 415.113,102.671 416.613,101.837 418.5,102C 419.591,104.064 419.758,106.231 419,108.5C 417.139,117.942 414.972,127.275 412.5,136.5 Z"/></g>
<g><path style="opacity:0.89" fill="#fefffe" d="M 14.5,106.5 C 17.3063,106.822 19.8063,107.822 22,109.5C 23.1737,113.046 23.8404,116.713 24,120.5C 27.8333,117.333 31.6667,114.167 35.5,111C 39.4179,109.963 42.4179,111.13 44.5,114.5C 40.3874,121.78 34.7207,127.614 27.5,132C 31.7869,133.488 36.1203,134.822 40.5,136C 41.1258,136.75 41.6258,137.584 42,138.5C 44.3038,131.922 46.8038,125.422 49.5,119C 46.972,116.377 45.972,113.21 46.5,109.5C 50.4055,109.286 54.2389,108.619 58,107.5C 60.1351,108.127 62.3018,108.627 64.5,109C 65.2931,110.085 65.9598,111.252 66.5,112.5C 64.9556,113.747 63.4556,115.08 62,116.5C 59.7568,124.897 56.9234,133.064 53.5,141C 55,141.833 56.1667,143 57,144.5C 60.7873,134.68 63.954,124.68 66.5,114.5C 71.9022,112.747 76.7355,113.747 81,117.5C 81.2189,118.938 81.7189,120.271 82.5,121.5C 86.012,117.489 89.6787,113.655 93.5,110C 98.9987,109.003 103.165,110.836 106,115.5C 108.874,114.468 110.374,112.468 110.5,109.5C 116.615,109.63 122.782,109.297 129,108.5C 134.676,108.522 138.343,111.188 140,116.5C 139.722,120.139 139.722,123.806 140,127.5C 142.907,120.612 147.24,114.945 153,110.5C 166.402,111.55 171.736,118.55 169,131.5C 174.762,122.501 181.595,114.334 189.5,107C 193.12,106.159 196.454,106.826 199.5,109C 200.517,110.049 200.684,111.216 200,112.5C 195.334,116.669 191.168,121.335 187.5,126.5C 187.833,126.833 188.167,127.167 188.5,127.5C 192.002,125.738 195.668,125.238 199.5,126C 200.899,127.062 201.899,128.395 202.5,130C 199.008,137.799 195.508,145.632 192,153.5C 185.925,159.667 182.592,158.667 182,150.5C 176.023,151.358 171.023,149.358 167,144.5C 166.667,141.833 166.333,139.167 166,136.5C 162.088,141.083 157.588,144.917 152.5,148C 142.569,148.406 137.402,143.572 137,133.5C 131.624,144.54 122.957,151.54 111,154.5C 106.815,154.403 103.315,152.903 100.5,150C 101.687,148.981 102.687,147.814 103.5,146.5C 102.081,144.664 100.914,142.664 100,140.5C 99.9014,144.705 98.0681,147.705 94.5,149.5C 93.5224,149.023 92.6891,148.357 92,147.5C 91.0046,142.547 90.3379,137.547 90,132.5C 87.9164,136.336 85.583,140.003 83,143.5C 79.156,145.238 75.8227,144.571 73,141.5C 71.3396,138.23 71.0062,134.897 72,131.5C 69.8226,138.032 67.6559,144.532 65.5,151C 63.4213,151.808 61.4213,151.641 59.5,150.5C 58.5197,149.019 57.353,147.685 56,146.5C 50.2298,150.855 43.7298,152.689 36.5,152C 32.0499,147.862 32.7166,145.195 38.5,144C 32.4623,143.026 26.4623,141.859 20.5,140.5C 19.5581,140.608 18.7247,140.941 18,141.5C 16.2678,145.363 14.9344,149.363 14,153.5C 11.3982,154.451 9.06485,155.784 7,157.5C 3.00506,156.936 0.838393,154.603 0.5,150.5C 4.57683,135.605 9.2435,120.938 14.5,106.5 Z M 125.5,117.5 C 126.693,117.97 127.36,118.97 127.5,120.5C 126.025,130.454 120.859,137.787 112,142.5C 113.096,134.539 115.429,126.872 119,119.5C 121.277,118.883 123.444,118.216 125.5,117.5 Z M 148.5,138.5 C 149.321,131.841 152.154,126.174 157,121.5C 156.623,128.382 153.79,134.048 148.5,138.5 Z M 101.5,137.5 C 102.674,132.47 104.008,127.47 105.5,122.5C 105.823,127.875 104.49,132.875 101.5,137.5 Z M 181.5,136.5 C 185.102,136.678 185.102,137.678 181.5,139.5C 180.438,138.575 180.438,137.575 181.5,136.5 Z"/></g>
<g><path style="opacity:0.893" fill="#fefffe" d="M 412.5,136.5 C 418.365,125.444 426.032,115.61 435.5,107C 439.412,106.069 442.912,106.903 446,109.5C 446.667,110.5 446.667,111.5 446,112.5C 441.334,116.669 437.168,121.335 433.5,126.5C 433.833,126.833 434.167,127.167 434.5,127.5C 438.002,125.738 441.668,125.238 445.5,126C 446.899,127.062 447.899,128.395 448.5,130C 445.037,138.592 441.037,146.926 436.5,155C 430.509,159.421 427.676,157.921 428,150.5C 422.023,151.358 417.023,149.358 413,144.5C 412.503,141.854 412.336,139.187 412.5,136.5 Z M 427.5,136.5 C 431.102,136.678 431.102,137.678 427.5,139.5C 426.438,138.575 426.438,137.575 427.5,136.5 Z"/></g>
<g><path style="opacity:0.886" fill="#fefffe" d="M 367.5,130.5 C 360.897,143.128 350.564,150.295 336.5,152C 335.577,149.959 335.244,147.792 335.5,145.5C 331.324,144.821 328.99,142.321 328.5,138C 329.125,136.159 329.292,134.326 329,132.5C 322.303,143.92 312.47,150.42 299.5,152C 298.577,149.959 298.244,147.792 298.5,145.5C 295.358,145.201 293.191,143.534 292,140.5C 291.699,137.493 291.865,134.493 292.5,131.5C 288.767,138.402 283.434,143.902 276.5,148C 266.569,148.406 261.402,143.572 261,133.5C 259.466,139.025 257.466,144.358 255,149.5C 252.225,152.332 249.725,152.165 247.5,149C 247.245,144.225 247.078,139.391 247,134.5C 244.843,140.857 240.843,145.523 235,148.5C 233.175,147.897 231.341,147.23 229.5,146.5C 228.366,143.93 227.532,141.264 227,138.5C 225.87,143.426 223.704,147.759 220.5,151.5C 214.978,151.401 213.144,148.734 215,143.5C 218.111,133.498 221.611,123.665 225.5,114C 229.726,112.261 233.892,112.428 238,114.5C 238.456,120.204 238.456,125.87 238,131.5C 242.351,123.479 247.851,116.312 254.5,110C 258.122,108.894 261.789,108.561 265.5,109C 266.022,109.561 266.355,110.228 266.5,111C 264.758,117.12 263.591,123.287 263,129.5C 266,121.79 270.666,115.457 277,110.5C 281.522,111.011 285.689,112.511 289.5,115C 291.487,116.319 292.654,118.152 293,120.5C 297.925,115.287 303.759,111.454 310.5,109C 320.288,106.585 327.455,109.752 332,118.5C 340.111,109.573 349.944,106.74 361.5,110C 365.994,112.484 368.328,116.317 368.5,121.5C 368.034,124.492 367.701,127.492 367.5,130.5 Z M 315.5,115.5 C 317.911,115.137 319.411,116.137 320,118.5C 320.484,120.913 320.15,123.246 319,125.5C 314.333,131.5 309,136.833 303,141.5C 304.829,134.845 306.995,128.178 309.5,121.5C 309.291,120.914 308.957,120.414 308.5,120C 310.898,118.476 313.231,116.976 315.5,115.5 Z M 352.5,115.5 C 354.911,115.137 356.411,116.137 357,118.5C 357.484,120.913 357.15,123.246 356,125.5C 351.333,131.5 346,136.833 340,141.5C 341.829,134.845 343.995,128.178 346.5,121.5C 346.291,120.914 345.957,120.414 345.5,120C 347.898,118.476 350.231,116.976 352.5,115.5 Z M 272.5,138.5 C 273.321,131.841 276.154,126.174 281,121.5C 280.623,128.382 277.79,134.048 272.5,138.5 Z M 292.5,131.5 C 292.89,128.161 293.39,124.827 294,121.5C 296.061,125.247 295.561,128.581 292.5,131.5 Z M 331.5,123.5 C 332.709,125.435 332.542,127.435 331,129.5C 330.51,127.455 330.677,125.455 331.5,123.5 Z"/></g>
</svg>
